<svg width="96" height="36" viewBox="0 0 96 36" fill="none" xmlns="http://www.w3.org/2000/svg">
<rect x="0.546948" y="0.7469" width="94.4131" height="33.9108" rx="15.8615" stroke="#151513" stroke-width="1.0939"/>
<path d="M30.6291 11.1389L17.5023 24.2657" stroke="#333333" stroke-width="0.984507" stroke-linecap="round" stroke-linejoin="round"/>
<path d="M17.5024 11.1389L30.6292 24.2657" stroke="#333333" stroke-width="0.984507" stroke-linecap="round" stroke-linejoin="round"/>
<path d="M46.3134 22.8992C45.3727 22.8992 44.5785 22.6914 43.9309 22.2757C43.2833 21.8556 42.7933 21.2759 42.4607 20.5364C42.1282 19.7969 41.9619 18.9437 41.9619 17.9767C41.9619 17.0097 42.1282 16.1564 42.4607 15.4169C42.7933 14.6775 43.2833 14.0999 43.9309 13.6842C44.5785 13.2642 45.3727 13.0541 46.3134 13.0541C47.4117 13.0541 48.3087 13.3364 49.0044 13.9008C49.7001 14.4609 50.1771 15.2135 50.4352 16.1586L49.4507 16.4146C49.2495 15.6664 48.8885 15.0735 48.3678 14.6359C47.8471 14.1983 47.1623 13.9796 46.3134 13.9796C45.574 13.9796 44.9592 14.148 44.4691 14.4849C43.9791 14.8219 43.6093 15.2922 43.3599 15.8961C43.1149 16.4955 42.988 17.1891 42.9792 17.9767C42.9749 18.7643 43.0952 19.4578 43.3402 20.0573C43.5896 20.6567 43.9616 21.1271 44.456 21.4684C44.9548 21.8053 45.574 21.9738 46.3134 21.9738C47.1623 21.9738 47.8471 21.755 48.3678 21.3174C48.8885 20.8755 49.2495 20.2826 49.4507 19.5388L50.4352 19.7947C50.1771 20.7399 49.7001 21.4946 49.0044 22.0591C48.3087 22.6192 47.4117 22.8992 46.3134 22.8992ZM53.9115 22.8992C53.3777 22.8992 52.9292 22.8029 52.566 22.6104C52.2072 22.4179 51.9381 22.1619 51.7587 21.8425C51.5793 21.5231 51.4896 21.1752 51.4896 20.7989C51.4896 20.4139 51.5662 20.0857 51.7193 19.8144C51.8768 19.5388 52.089 19.3134 52.356 19.1384C52.6272 18.9634 52.9401 18.8299 53.2945 18.738C53.6533 18.6505 54.0493 18.5739 54.4825 18.5083C54.92 18.4383 55.3467 18.3792 55.7623 18.3311C56.1824 18.2786 56.55 18.2283 56.865 18.1801L56.5237 18.3902C56.5368 17.6901 56.4012 17.1716 56.1168 16.8346C55.8324 16.4977 55.3379 16.3293 54.6334 16.3293C54.1478 16.3293 53.7365 16.4386 53.3995 16.6574C53.067 16.8762 52.8329 17.2219 52.6972 17.6944L51.7587 17.4188C51.9206 16.7843 52.2466 16.2921 52.7366 15.942C53.2267 15.592 53.8633 15.4169 54.6466 15.4169C55.2942 15.4169 55.8433 15.5395 56.294 15.7845C56.749 16.0252 57.0706 16.3752 57.2588 16.8346C57.3463 17.0403 57.4032 17.27 57.4294 17.5238C57.4557 17.7776 57.4688 18.0357 57.4688 18.2983V22.7023H56.609V20.9236L56.8584 21.0286C56.6178 21.6368 56.2437 22.1007 55.7361 22.4201C55.2285 22.7395 54.6203 22.8992 53.9115 22.8992ZM54.0231 22.0657C54.4737 22.0657 54.8675 21.9847 55.2045 21.8228C55.5414 21.6609 55.8127 21.4399 56.0183 21.1599C56.224 20.8755 56.3574 20.5561 56.4187 20.2017C56.4712 19.9741 56.4996 19.7247 56.504 19.4534C56.5084 19.1778 56.5106 18.9721 56.5106 18.8365L56.8781 19.0268C56.55 19.0706 56.1933 19.1143 55.8083 19.1581C55.4276 19.2018 55.0513 19.2522 54.6794 19.309C54.3118 19.3659 53.9793 19.4337 53.6818 19.5125C53.4805 19.5694 53.2858 19.6503 53.0976 19.7553C52.9095 19.856 52.7541 19.9916 52.6316 20.1623C52.5135 20.3329 52.4544 20.5451 52.4544 20.7989C52.4544 21.0046 52.5047 21.2037 52.6054 21.3962C52.7104 21.5887 52.8766 21.7484 53.1042 21.8753C53.3361 22.0022 53.6424 22.0657 54.0231 22.0657ZM64.2969 22.7023V19.0859C64.2969 18.6921 64.2597 18.3311 64.1853 18.0029C64.1109 17.6704 63.9906 17.3816 63.8243 17.1366C63.6624 16.8871 63.4502 16.6946 63.1877 16.559C62.9295 16.4233 62.6145 16.3555 62.2426 16.3555C61.9013 16.3555 61.5993 16.4146 61.3368 16.5327C61.0787 16.6509 60.8599 16.8215 60.6805 17.0447C60.5055 17.2634 60.372 17.5304 60.2801 17.8454C60.1882 18.1604 60.1423 18.5192 60.1423 18.9218L59.4597 18.7708C59.4597 18.0445 59.5866 17.4341 59.8404 16.9397C60.0941 16.4452 60.4442 16.0711 60.8905 15.8173C61.3368 15.5635 61.8488 15.4366 62.4263 15.4366C62.8508 15.4366 63.2205 15.5023 63.5355 15.6335C63.855 15.7648 64.1241 15.942 64.3428 16.1652C64.566 16.3883 64.7454 16.6443 64.881 16.9331C65.0167 17.2175 65.1151 17.5216 65.1764 17.8454C65.2376 18.1648 65.2683 18.4842 65.2683 18.8037V22.7023H64.2969ZM59.1709 22.7023V15.6139H60.0438V17.3597H60.1423V22.7023H59.1709ZM69.8734 22.8992C69.1602 22.8992 68.5564 22.7395 68.0619 22.4201C67.5675 22.1007 67.1912 21.6609 66.933 21.1008C66.6792 20.5364 66.548 19.8888 66.5392 19.1581C66.548 18.4142 66.6836 17.7623 66.9461 17.2022C67.2087 16.6377 67.5872 16.2002 68.0816 15.8895C68.576 15.5745 69.1755 15.4169 69.88 15.4169C70.5976 15.4169 71.2211 15.592 71.7505 15.942C72.2844 16.2921 72.6497 16.7712 72.8466 17.3794L71.9015 17.6813C71.7352 17.2569 71.4705 16.9287 71.1073 16.6968C70.7485 16.4605 70.3372 16.3424 69.8734 16.3424C69.3527 16.3424 68.9217 16.4627 68.5804 16.7034C68.2391 16.9397 67.9853 17.27 67.8191 17.6944C67.6528 18.1189 67.5675 18.6068 67.5631 19.1581C67.5719 20.0069 67.7688 20.6895 68.1538 21.2059C68.5389 21.7178 69.1121 21.9738 69.8734 21.9738C70.3547 21.9738 70.7638 21.8644 71.1008 21.6456C71.4421 21.4224 71.7002 21.0986 71.8752 20.6742L72.8466 20.963C72.5841 21.5931 72.199 22.0744 71.6915 22.4069C71.1839 22.7351 70.5779 22.8992 69.8734 22.8992ZM77.0086 22.8992C76.3173 22.8992 75.7178 22.7461 75.2103 22.4398C74.7071 22.1335 74.3155 21.7025 74.0354 21.1468C73.7554 20.5911 73.6154 19.9391 73.6154 19.1909C73.6154 18.4164 73.7532 17.7469 74.0288 17.1825C74.3045 16.618 74.6918 16.1827 75.1906 15.8764C75.6938 15.5701 76.2867 15.4169 76.9692 15.4169C77.6693 15.4169 78.2666 15.5788 78.761 15.9026C79.2555 16.2221 79.6296 16.6815 79.8834 17.2809C80.1372 17.8804 80.2531 18.5958 80.2312 19.4272H79.2467V19.0859C79.2292 18.167 79.0301 17.4735 78.6495 17.0053C78.2732 16.5371 77.7218 16.303 76.9955 16.303C76.2341 16.303 75.65 16.5502 75.2431 17.0447C74.8405 17.5391 74.6392 18.2436 74.6392 19.1581C74.6392 20.0507 74.8405 20.7442 75.2431 21.2387C75.65 21.7287 76.2254 21.9738 76.9692 21.9738C77.4768 21.9738 77.9187 21.8578 78.295 21.6259C78.6757 21.3896 78.9755 21.0505 79.1942 20.6086L80.0934 20.9564C79.8134 21.5734 79.3999 22.0525 78.8529 22.3938C78.3104 22.7307 77.6956 22.8992 77.0086 22.8992ZM74.2979 19.4272V18.6199H79.7127V19.4272H74.2979ZM81.8191 22.7023V13.0541H82.7839V22.7023H81.8191Z" fill="#151513"/>
</svg>
