<svg width="60" height="60" viewBox="0 0 60 60" fill="none" xmlns="http://www.w3.org/2000/svg">
<circle cx="22.6656" cy="22.6656" r="22.1656" transform="matrix(0.41274 0.910849 0.910849 -0.41274 0 18.71)" fill="#FEFEFC" stroke="#151513"/>
<rect x="24.2451" y="24.7367" width="14.289" height="17.3509" rx="2.04128" fill="#FEFEFC" stroke="#151513" stroke-width="1.02064"/>
<path d="M28.3277 29.84H34.4516" stroke="#151513" stroke-width="1.02064" stroke-linecap="round"/>
<path d="M28.3277 33.9225H34.4516" stroke="#151513" stroke-width="1.02064" stroke-linecap="round"/>
<path d="M28.3277 38.0051H32.4103" stroke="#151513" stroke-width="1.02064" stroke-linecap="round"/>
<path d="M26.7967 22.6954C26.7967 24.2998 26.3623 25.7292 25.6867 26.7426C25.0087 27.7595 24.1281 28.309 23.2245 28.309C22.3208 28.309 21.4403 27.7595 20.7623 26.7426C20.0867 25.7292 19.6522 24.2998 19.6522 22.6954C19.6522 21.0911 20.0867 19.6617 20.7623 18.6483C21.4403 17.6313 22.3208 17.0819 23.2245 17.0819C24.1281 17.0819 25.0087 17.6313 25.6867 18.6483C26.3623 19.6617 26.7967 21.0911 26.7967 22.6954Z" fill="#FEFEFC" stroke="#151513" stroke-width="1.02064"/>
<path d="M33.9413 22.6954C33.9413 24.2998 33.5068 25.7292 32.8312 26.7426C32.1533 27.7595 31.2727 28.309 30.369 28.309C29.4654 28.309 28.5848 27.7595 27.9069 26.7426C27.2313 25.7292 26.7968 24.2998 26.7968 22.6954C26.7968 21.0911 27.2313 19.6617 27.9069 18.6483C28.5848 17.6313 29.4654 17.0819 30.369 17.0819C31.2727 17.0819 32.1533 17.6313 32.8312 18.6483C33.5068 19.6617 33.9413 21.0911 33.9413 22.6954Z" fill="#FEFEFC" stroke="#151513" stroke-width="1.02064"/>
<ellipse cx="29.8586" cy="24.2264" rx="2.5516" ry="3.57224" fill="#151513"/>
<ellipse cx="22.7142" cy="24.2264" rx="2.5516" ry="3.57224" fill="#151513"/>
</svg>
