<svg width="99" height="36" viewBox="0 0 99 36" fill="none" xmlns="http://www.w3.org/2000/svg">
<rect x="0.546948" y="0.7469" width="97.7878" height="33.9108" rx="15.8615" stroke="#151513" stroke-width="1.0939"/>
<path d="M13.8925 19.2303L16.5351 21.3597C16.9128 21.664 17.4673 21.5967 17.7611 21.2108L24.722 12.0702" stroke="#151513" stroke-width="1.07695" stroke-linecap="round"/>
<path d="M30.8424 11.8701C31.0366 11.7119 31.3216 11.7064 31.5231 11.8711C31.7245 12.0359 31.7754 12.3164 31.6588 12.5381L31.5992 12.6289L24.3805 21.4522L24.2848 21.5576C23.8197 22.0216 23.0894 22.0989 22.5377 21.7422L22.4225 21.6592L20.9332 20.4678L21.6149 19.6338L23.0944 20.8174L23.149 20.8535C23.2626 20.9118 23.4016 20.8968 23.5006 20.8164L23.5465 20.7705L30.7653 11.9473L30.8424 11.8701Z" fill="#151513"/>
<path d="M43.6881 22.8992C42.7473 22.8992 41.9532 22.6914 41.3056 22.2757C40.658 21.8556 40.1679 21.2759 39.8354 20.5364C39.5028 19.7969 39.3366 18.9437 39.3366 17.9767C39.3366 17.0097 39.5028 16.1564 39.8354 15.4169C40.1679 14.6775 40.658 14.0999 41.3056 13.6842C41.9532 13.2642 42.7473 13.0541 43.6881 13.0541C44.7863 13.0541 45.6833 13.3364 46.3791 13.9008C47.0748 14.4609 47.5517 15.2135 47.8099 16.1586L46.8254 16.4146C46.6241 15.6664 46.2631 15.0735 45.7424 14.6359C45.2217 14.1983 44.5369 13.9796 43.6881 13.9796C42.9486 13.9796 42.3338 14.148 41.8438 14.4849C41.3537 14.8219 40.984 15.2922 40.7346 15.8961C40.4895 16.4955 40.3626 17.1891 40.3539 17.9767C40.3495 18.7643 40.4698 19.4578 40.7149 20.0573C40.9643 20.6567 41.3362 21.1271 41.8306 21.4684C42.3295 21.8053 42.9486 21.9738 43.6881 21.9738C44.5369 21.9738 45.2217 21.755 45.7424 21.3174C46.2631 20.8755 46.6241 20.2826 46.8254 19.5388L47.8099 19.7947C47.5517 20.7399 47.0748 21.4946 46.3791 22.0591C45.6833 22.6192 44.7863 22.8992 43.6881 22.8992ZM52.2181 22.8992C51.5136 22.8992 50.912 22.7395 50.4132 22.4201C49.9144 22.1007 49.5315 21.6587 49.2646 21.0943C48.9977 20.5298 48.8642 19.8822 48.8642 19.1515C48.8642 18.4077 48.9999 17.7557 49.2712 17.1956C49.5424 16.6355 49.9275 16.2002 50.4263 15.8895C50.9295 15.5745 51.5268 15.4169 52.2181 15.4169C52.927 15.4169 53.5308 15.5767 54.0296 15.8961C54.5328 16.2111 54.9157 16.6509 55.1782 17.2153C55.4451 17.7754 55.5786 18.4208 55.5786 19.1515C55.5786 19.8954 55.4451 20.5495 55.1782 21.114C54.9113 21.674 54.5262 22.1116 54.023 22.4266C53.5198 22.7417 52.9182 22.8992 52.2181 22.8992ZM52.2181 21.9738C53.0057 21.9738 53.592 21.7134 53.9771 21.1927C54.3621 20.6677 54.5547 19.9872 54.5547 19.1515C54.5547 18.2939 54.36 17.6113 53.9705 17.1037C53.5855 16.5962 53.0013 16.3424 52.2181 16.3424C51.6887 16.3424 51.2511 16.4627 50.9054 16.7034C50.5641 16.9397 50.3082 17.27 50.1375 17.6944C49.9712 18.1145 49.8881 18.6002 49.8881 19.1515C49.8881 20.0048 50.085 20.6895 50.4788 21.2059C50.8726 21.7178 51.4524 21.9738 52.2181 21.9738ZM62.1458 22.7023V19.0859C62.1458 18.6921 62.1086 18.3311 62.0343 18.0029C61.9599 17.6704 61.8395 17.3816 61.6733 17.1366C61.5114 16.8871 61.2992 16.6946 61.0366 16.559C60.7785 16.4233 60.4634 16.3555 60.0915 16.3555C59.7502 16.3555 59.4483 16.4146 59.1858 16.5327C58.9276 16.6509 58.7088 16.8215 58.5294 17.0447C58.3544 17.2634 58.2209 17.5304 58.129 17.8454C58.0372 18.1604 57.9912 18.5192 57.9912 18.9218L57.3086 18.7708C57.3086 18.0445 57.4355 17.4341 57.6893 16.9397C57.9431 16.4452 58.2931 16.0711 58.7394 15.8173C59.1858 15.5635 59.6977 15.4366 60.2753 15.4366C60.6997 15.4366 61.0694 15.5023 61.3845 15.6335C61.7039 15.7648 61.973 15.942 62.1918 16.1652C62.4149 16.3883 62.5943 16.6443 62.73 16.9331C62.8656 17.2175 62.9641 17.5216 63.0253 17.8454C63.0866 18.1648 63.1172 18.4842 63.1172 18.8037V22.7023H62.1458ZM57.0198 22.7023V15.6139H57.8928V17.3597H57.9912V22.7023H57.0198ZM65.5227 22.7023V15.0888C65.5227 14.905 65.5314 14.7234 65.5489 14.544C65.5708 14.3646 65.6124 14.194 65.6737 14.0321C65.7349 13.8658 65.8312 13.7127 65.9624 13.5726C66.1068 13.4151 66.2644 13.3014 66.435 13.2313C66.6057 13.157 66.7829 13.1088 66.9666 13.0869C67.1548 13.0651 67.3386 13.0541 67.518 13.0541H68.4237V13.868H67.5836C67.216 13.868 66.9404 13.9577 66.7566 14.1371C66.5772 14.3165 66.4875 14.5987 66.4875 14.9838V22.7023H65.5227ZM64.2953 16.4408V15.6139H68.4237V16.4408H64.2953ZM69.802 14.2684V13.1854H70.7668V14.2684H69.802ZM69.802 22.7023V15.6139H70.7668V22.7023H69.802ZM72.7298 22.7023V15.6139H73.5962V17.3203L73.4255 17.0972C73.5043 16.8871 73.6071 16.6946 73.734 16.5196C73.8609 16.3402 73.9987 16.1936 74.1475 16.0798C74.3313 15.918 74.5457 15.7954 74.7907 15.7123C75.0357 15.6248 75.283 15.5745 75.5324 15.5613C75.7818 15.5438 76.0093 15.5613 76.215 15.6139V16.5196C75.9568 16.454 75.6746 16.4386 75.3683 16.4737C75.062 16.5087 74.7798 16.6312 74.5216 16.8412C74.2853 17.025 74.1081 17.2459 73.99 17.5041C73.8718 17.7579 73.7931 18.0292 73.7537 18.318C73.7143 18.6024 73.6946 18.8846 73.6946 19.1646V22.7023H72.7298ZM85.9137 22.7023L85.9202 18.0489C85.9202 17.5019 85.7671 17.0731 85.4608 16.7624C85.1589 16.4474 84.7738 16.2899 84.3057 16.2899C84.0387 16.2899 83.7784 16.3511 83.5246 16.4737C83.2708 16.5962 83.0608 16.7931 82.8945 17.0644C82.7326 17.3356 82.6517 17.6901 82.6517 18.1276L82.0807 17.9635C82.0675 17.456 82.166 17.0118 82.376 16.6312C82.5904 16.2505 82.8836 15.9551 83.2555 15.7451C83.6318 15.5307 84.0562 15.4235 84.5288 15.4235C85.242 15.4235 85.813 15.6445 86.2419 16.0864C86.6707 16.524 86.8851 17.1169 86.8851 17.8651L86.8785 22.7023H85.9137ZM77.4535 22.7023V15.6139H78.3199V17.3597H78.4249V22.7023H77.4535ZM81.6934 22.7023L81.7 18.1145C81.7 17.55 81.549 17.1059 81.2471 16.7821C80.9496 16.454 80.5558 16.2899 80.0657 16.2899C79.5756 16.2899 79.1797 16.4583 78.8777 16.7953C78.5758 17.1278 78.4249 17.5719 78.4249 18.1276L77.8473 17.8126C77.8473 17.3575 77.9545 16.9506 78.1689 16.5918C78.3833 16.2286 78.6765 15.9442 79.0484 15.7386C79.4203 15.5285 79.8426 15.4235 80.3151 15.4235C80.7658 15.4235 81.1662 15.5198 81.5162 15.7123C81.8706 15.9048 82.1485 16.1849 82.3498 16.5524C82.551 16.92 82.6517 17.3663 82.6517 17.8913L82.6451 22.7023H81.6934Z" fill="#151513"/>
</svg>
