<svg width="74" height="35" viewBox="0 0 74 35" fill="none" xmlns="http://www.w3.org/2000/svg">
<rect x="0.546948" y="0.546948" width="72.4131" height="33.9108" rx="15.8615" fill="#151513"/>
<rect x="0.546948" y="0.546948" width="72.4131" height="33.9108" rx="15.8615" stroke="#151513" stroke-width="1.0939"/>
<g clip-path="url(#clip0_812_3912)">
<path d="M21.8025 13.4287L21.3354 14.6907C20.7234 16.3455 20.4174 17.173 19.8136 17.7768C19.2097 18.3806 18.3823 18.6866 16.7274 19.2986L15.4654 19.7657L16.7274 20.2329C18.3823 20.8448 19.2097 21.1517 19.8136 21.7547C20.4174 22.3576 20.7234 23.1859 21.3354 24.8408L21.8025 26.1028L22.2696 24.8408C22.8816 23.1859 23.1885 22.3585 23.7914 21.7547C24.3944 21.1508 25.2227 20.8448 26.8776 20.2329L28.1396 19.7657L26.8776 19.2986C25.2227 18.6866 24.3953 18.3806 23.7914 17.7768C23.1876 17.173 22.8816 16.3455 22.2696 14.6907L21.8025 13.4287ZM29.0448 9.8075L28.8448 10.348C28.5822 11.0577 28.451 11.4126 28.193 11.6706C27.9341 11.9295 27.5792 12.0608 26.8694 12.3224L26.329 12.5234L26.8703 12.7234C27.5792 12.986 27.9341 13.1172 28.1921 13.3753C28.451 13.6342 28.5822 13.989 28.8439 14.6988L29.0448 15.2393L29.2449 14.6988C29.5075 13.989 29.6387 13.6342 29.8967 13.3762C30.1556 13.1172 30.5105 12.986 31.2203 12.7244L31.7607 12.5234L31.2194 12.3233C30.5105 12.0608 30.1556 11.9295 29.8976 11.6715C29.6387 11.4126 29.5075 11.0577 29.2458 10.348L29.0448 9.8075Z" stroke="#FEFEFC" stroke-width="1.19661" stroke-linecap="round" stroke-linejoin="round"/>
</g>
<path d="M44.7382 22.5023V18.5446L41.5681 13.0511H42.6839L45.2239 17.442L47.7508 13.0511H48.8666L45.7096 18.5446V22.5023H44.7382ZM51.7293 22.6992C51.038 22.6992 50.4385 22.5461 49.931 22.2398C49.4278 21.9335 49.0361 21.5025 48.7561 20.9468C48.4761 20.3911 48.3361 19.7391 48.3361 18.9909C48.3361 18.2164 48.4739 17.547 48.7495 16.9825C49.0252 16.4181 49.4124 15.9827 49.9113 15.6764C50.4145 15.3701 51.0073 15.217 51.6899 15.217C52.39 15.217 52.9873 15.3789 53.4817 15.7027C53.9762 16.0221 54.3503 16.4815 54.6041 17.081C54.8579 17.6804 54.9738 18.3958 54.9519 19.2272H53.9674V18.8859C53.9499 17.967 53.7508 17.2735 53.3702 16.8053C52.9939 16.3371 52.4425 16.103 51.7162 16.103C50.9548 16.103 50.3707 16.3502 49.9638 16.8447C49.5612 17.3391 49.3599 18.0436 49.3599 18.9581C49.3599 19.8507 49.5612 20.5442 49.9638 21.0387C50.3707 21.5288 50.9461 21.7738 51.6899 21.7738C52.1975 21.7738 52.6394 21.6578 53.0157 21.4259C53.3964 21.1896 53.6961 20.8505 53.9149 20.4086L54.8141 20.7565C54.5341 21.3734 54.1206 21.8525 53.5736 22.1938C53.0311 22.5308 52.4163 22.6992 51.7293 22.6992ZM49.0186 19.2272V18.4199H54.4334V19.2272H49.0186ZM59.0535 22.6927C58.2222 22.6927 57.5374 22.5133 56.9992 22.1545C56.4654 21.7957 56.1372 21.2968 56.0147 20.658L56.9992 20.4939C57.1042 20.8965 57.3427 21.2181 57.7146 21.4587C58.0909 21.695 58.5547 21.8132 59.106 21.8132C59.6442 21.8132 60.0687 21.7016 60.3793 21.4784C60.69 21.2509 60.8453 20.9424 60.8453 20.553C60.8453 20.3342 60.795 20.157 60.6944 20.0214C60.5981 19.8813 60.399 19.7523 60.0971 19.6341C59.7952 19.516 59.3445 19.376 58.7451 19.2141C58.1018 19.039 57.5987 18.864 57.2355 18.689C56.8723 18.514 56.6141 18.3127 56.461 18.0852C56.3079 17.8533 56.2313 17.571 56.2313 17.2385C56.2313 16.8359 56.345 16.4837 56.5726 16.1818C56.8001 15.8755 57.1152 15.6392 57.5177 15.4729C57.9203 15.3023 58.3884 15.217 58.9223 15.217C59.4561 15.217 59.933 15.3045 60.3531 15.4795C60.7775 15.6502 61.1188 15.8908 61.377 16.2015C61.6351 16.5121 61.7883 16.8731 61.8364 17.2844L60.8519 17.4616C60.7863 17.046 60.5784 16.7178 60.2284 16.4771C59.8827 16.2321 59.443 16.1052 58.9091 16.0965C58.406 16.0833 57.9968 16.1796 57.6818 16.3852C57.3667 16.5865 57.2092 16.8556 57.2092 17.1925C57.2092 17.3807 57.2661 17.5426 57.3799 17.6782C57.4936 17.8095 57.6993 17.9342 57.9968 18.0523C58.2987 18.1705 58.7276 18.2996 59.2833 18.4396C59.9352 18.6059 60.4472 18.7809 60.8191 18.9647C61.191 19.1484 61.4557 19.365 61.6133 19.6144C61.7708 19.8638 61.8495 20.1723 61.8495 20.5399C61.8495 21.2093 61.6001 21.7366 61.1013 22.1216C60.6069 22.5023 59.9243 22.6927 59.0535 22.6927Z" fill="#FEFEFC"/>
<defs>
<clipPath id="clip0_812_3912">
<rect width="26.2535" height="26.2535" fill="white" transform="translate(10.939 4.37561)"/>
</clipPath>
</defs>
</svg>
