<svg width="32" height="32" viewBox="0 0 32 32" fill="none" xmlns="http://www.w3.org/2000/svg">
<rect x="0.5" y="0.5" width="31" height="31" rx="9.5" stroke="#151513"/>
<path d="M20.3076 6.95898C20.6844 6.95898 20.9869 7.12476 21.2559 7.3418C21.5136 7.54981 21.7965 7.85291 22.1279 8.20508L23.0742 9.20996C23.3703 9.52451 23.6264 9.79547 23.8027 10.04C23.9876 10.2964 24.1269 10.5787 24.127 10.9229C24.127 11.2671 23.9876 11.5493 23.8027 11.8057C23.6263 12.0504 23.3705 12.322 23.0742 12.6367L13.6787 22.6191C13.5031 22.8057 13.3523 22.9722 13.1582 23.0879C12.9643 23.2033 12.7473 23.2566 12.5 23.3223L8.93457 24.2695C8.77085 24.313 8.59273 24.3612 8.44434 24.3779C8.28986 24.3953 8.02881 24.3957 7.81641 24.1895C7.6039 23.9829 7.59639 23.7214 7.60938 23.5664C7.62186 23.4176 7.66531 23.2381 7.7041 23.0732L8.62109 19.1768C8.67628 18.9422 8.72059 18.7362 8.82129 18.5488C8.92198 18.3616 9.06932 18.2115 9.23438 18.0361L18.4873 8.20508L18.5039 8.1875L18.5049 8.18555C18.8287 7.8415 19.1063 7.54605 19.3594 7.3418C19.6283 7.12474 19.9308 6.95901 20.3076 6.95898Z" stroke="#151513"/>
<path d="M17.5 9.5L20.5 7L24.5 10.5L22 14L17.5 9.5Z" fill="#151513"/>
</svg>
