<svg width="48" height="48" viewBox="0 0 48 48" fill="none" xmlns="http://www.w3.org/2000/svg">
<path d="M32.2318 12.6402C32.4218 12.8682 32.7032 13 33 13H37.6C38.7366 13 39.5289 13.0008 40.1458 13.0512C40.7509 13.1006 41.0986 13.1928 41.362 13.327C41.9265 13.6146 42.3854 14.0735 42.673 14.638C42.8072 14.9014 42.8994 15.2491 42.9488 15.8542C42.9992 16.4711 43 17.2634 43 18.4V23.6C43 24.7366 42.9992 25.5289 42.9488 26.1458C42.8994 26.7509 42.8072 27.0986 42.673 27.362C42.3854 27.9265 41.9265 28.3854 41.362 28.673C41.0986 28.8072 40.7509 28.8994 40.1458 28.9488C39.5289 28.9992 38.7366 29 37.6 29H22.4C21.2634 29 20.4711 28.9992 19.8542 28.9488C19.2491 28.8994 18.9014 28.8072 18.638 28.673C18.0735 28.3854 17.6146 27.9265 17.327 27.362C17.1928 27.0986 17.1006 26.7509 17.0512 26.1458C17.0008 25.5289 17 24.7366 17 23.6V12.4C17 11.2634 17.0008 10.4711 17.0512 9.85424C17.1006 9.24907 17.1928 8.90138 17.327 8.63803C17.6146 8.07354 18.0735 7.6146 18.638 7.32698C18.9014 7.19279 19.2491 7.10062 19.8542 7.05118C20.4711 7.00078 21.2634 7 22.4 7H25.0024C26.1584 7 26.5529 7.00804 26.9059 7.10301C27.2452 7.19429 27.5658 7.34444 27.8531 7.54664C28.152 7.75703 28.4108 8.05496 29.1508 8.943L32.2318 12.6402Z" stroke="#151513" stroke-linejoin="round"/>
<path d="M12 14H10C7.79086 14 6 15.7909 6 18V20" stroke="#151513" stroke-miterlimit="1.41421"/>
<path d="M12 40H10C7.79086 40 6 38.2091 6 36V34" stroke="#151513" stroke-miterlimit="1.41421"/>
<path d="M26 40H28C30.2091 40 32 38.2091 32 36V34" stroke="#151513" stroke-miterlimit="1.41421"/>
<path d="M22 40H16" stroke="#151513" stroke-miterlimit="1.41421"/>
<path d="M6 24L6 30" stroke="#151513" stroke-miterlimit="1.41421"/>
</svg>
