<svg width="60" height="60" viewBox="0 0 60 60" fill="none" xmlns="http://www.w3.org/2000/svg">
<circle cx="30" cy="30.0001" r="22.1656" transform="rotate(114.377 30 30.0001)" fill="#FEFEFC" stroke="#151513"/>
<rect width="14.289" height="17.3509" rx="2.04128" transform="matrix(-1 0 0 1 35.7549 24.7367)" fill="#FEFEFC" stroke="#151513" stroke-width="1.02064"/>
<path d="M31.6723 29.8398H25.5484" stroke="#151513" stroke-width="1.02064" stroke-linecap="round"/>
<path d="M31.6723 33.9225H25.5484" stroke="#151513" stroke-width="1.02064" stroke-linecap="round"/>
<path d="M31.6723 38.005H27.5897" stroke="#151513" stroke-width="1.02064" stroke-linecap="round"/>
<path d="M36.7751 17.0824C35.8716 17.0826 34.991 17.632 34.3132 18.6488C33.6377 19.6622 33.2028 21.0915 33.2028 22.6957C33.2029 24.2999 33.6377 25.7292 34.3132 26.7426C34.991 27.7593 35.8716 28.3088 36.7751 28.309C37.6787 28.309 38.56 27.7595 39.238 26.7426C39.9135 25.7292 40.3473 24.2999 40.3474 22.6957C40.3474 21.0915 39.9134 19.6622 39.238 18.6488C38.56 17.6318 37.6787 17.0824 36.7751 17.0824Z" fill="#FEFEFC" stroke="#151513" stroke-width="1.02064"/>
<path d="M29.6305 17.0824C28.727 17.0826 27.8464 17.632 27.1686 18.6488C26.4931 19.6622 26.0582 21.0915 26.0582 22.6957C26.0583 24.2999 26.4931 25.7292 27.1686 26.7426C27.8464 27.7593 28.727 28.3088 29.6305 28.309C30.5341 28.309 31.4154 27.7595 32.0934 26.7426C32.7689 25.7292 33.2027 24.2999 33.2028 22.6957C33.2028 21.0915 32.7688 19.6622 32.0934 18.6488C31.4154 17.6318 30.5341 17.0824 29.6305 17.0824Z" fill="#FEFEFC" stroke="#151513" stroke-width="1.02064"/>
<ellipse cx="2.5516" cy="3.57224" rx="2.5516" ry="3.57224" transform="matrix(-1 0 0 1 32.693 20.6542)" fill="#151513"/>
<ellipse cx="2.5516" cy="3.57224" rx="2.5516" ry="3.57224" transform="matrix(-1 0 0 1 39.8374 20.6542)" fill="#151513"/>
</svg>
