<svg width="150" height="48" viewBox="0 0 150 48" fill="none" xmlns="http://www.w3.org/2000/svg">
<g clip-path="url(#clip0_2017_3916)">
<path d="M130 0.75354H20C9.23045 0.75354 0.5 9.48399 0.5 20.2535V27.2535C0.5 38.0231 9.23045 46.7535 20 46.7535H130C140.77 46.7535 149.5 38.0231 149.5 27.2535V20.2535C149.5 9.48399 140.77 0.75354 130 0.75354Z" stroke="black"/>
<mask id="mask0_2017_3916" style="mask-type:luminance" maskUnits="userSpaceOnUse" x="15" y="14" width="34" height="20">
<path d="M49 14.2535H15V33.2535H49V14.2535Z" fill="white"/>
</mask>
<g mask="url(#mask0_2017_3916)">
<path d="M15.28 29.2536L18.752 19.1736H20.117L23.589 29.2536H22.518L19.221 19.7476H19.627L16.351 29.2536H15.28ZM16.827 26.8106V25.8446H22.035V26.8106H16.827ZM28.248 29.4636C27.5527 29.4636 26.9647 29.2886 26.484 28.9386C26.0034 28.584 25.6394 28.1056 25.392 27.5036C25.1447 26.897 25.021 26.218 25.021 25.4666C25.021 24.7013 25.1447 24.02 25.392 23.4226C25.644 22.8206 26.0127 22.347 26.498 22.0016C26.9834 21.6563 27.5807 21.4836 28.29 21.4836C28.9807 21.4836 29.5734 21.6586 30.068 22.0086C30.5627 22.3586 30.9407 22.8346 31.202 23.4366C31.468 24.0386 31.601 24.7153 31.601 25.4666C31.601 26.2226 31.468 26.9016 31.202 27.5036C30.936 28.1056 30.5534 28.584 30.054 28.9386C29.5547 29.2886 28.9527 29.4636 28.248 29.4636ZM24.846 32.6136V21.6936H25.77V27.3846H25.882V32.6136H24.846ZM28.143 28.5046C28.6704 28.5046 29.109 28.3716 29.459 28.1056C29.809 27.8396 30.0704 27.478 30.243 27.0206C30.4204 26.5586 30.509 26.0406 30.509 25.4666C30.509 24.8973 30.4227 24.384 30.25 23.9266C30.0774 23.4693 29.8137 23.1076 29.459 22.8416C29.109 22.5756 28.6634 22.4426 28.122 22.4426C27.5947 22.4426 27.156 22.571 26.806 22.8276C26.4607 23.0843 26.2017 23.4413 26.029 23.8986C25.8564 24.3513 25.77 24.874 25.77 25.4666C25.77 26.05 25.8564 26.5726 26.029 27.0346C26.2017 27.492 26.463 27.8513 26.813 28.1126C27.163 28.374 27.6064 28.5046 28.143 28.5046ZM33.1382 29.2536V21.6936H34.0622V23.5136L33.8802 23.2756C33.9642 23.0516 34.0739 22.8463 34.2092 22.6596C34.3445 22.4683 34.4915 22.312 34.6502 22.1906C34.8462 22.018 35.0749 21.8873 35.3362 21.7986C35.5975 21.7053 35.8612 21.6516 36.1272 21.6376C36.3932 21.619 36.6359 21.6376 36.8552 21.6936V22.6596C36.5799 22.5896 36.2789 22.5733 35.9522 22.6106C35.6255 22.648 35.3245 22.7786 35.0492 23.0026C34.7972 23.1986 34.6082 23.4343 34.4822 23.7096C34.3562 23.9803 34.2722 24.2696 34.2302 24.5776C34.1882 24.881 34.1672 25.182 34.1672 25.4806V29.2536H33.1382Z" fill="#151513"/>
<path d="M46.0095 29.2536V20.3216L44.1125 21.4626V20.3076L46.0095 19.1736H47.0525V29.2536H46.0095Z" fill="#151513"/>
</g>
<path d="M61.91 31.2535V19.1535L59.2 20.8035V18.4735L61.91 16.8535H64.04V31.2535H61.91ZM70.3475 31.2535V19.1535L67.6375 20.8035V18.4735L70.3475 16.8535H72.4775V31.2535H70.3475Z" fill="#151513"/>
<path d="M79.54 28.2735V26.7265H81.087V28.2735H79.54ZM79.547 24.2205V22.6735H81.094V24.2205H79.547Z" fill="#151513"/>
<path d="M92.42 31.5535C91.44 31.5535 90.5733 31.3402 89.82 30.9135C89.0667 30.4802 88.4733 29.8869 88.04 29.1335C87.6133 28.3802 87.4 27.5135 87.4 26.5335V21.5735C87.4 20.5935 87.6133 19.7269 88.04 18.9735C88.4733 18.2202 89.0667 17.6302 89.82 17.2035C90.5733 16.7702 91.44 16.5535 92.42 16.5535C93.4 16.5535 94.2667 16.7702 95.02 17.2035C95.7733 17.6302 96.3633 18.2202 96.79 18.9735C97.2233 19.7269 97.44 20.5935 97.44 21.5735V26.5335C97.44 27.5135 97.2233 28.3802 96.79 29.1335C96.3633 29.8869 95.7733 30.4802 95.02 30.9135C94.2667 31.3402 93.4 31.5535 92.42 31.5535ZM92.42 29.5535C92.9533 29.5535 93.4367 29.4269 93.87 29.1735C94.31 28.9135 94.66 28.5669 94.92 28.1335C95.18 27.6935 95.31 27.2035 95.31 26.6635V21.4235C95.31 20.8902 95.18 20.4069 94.92 19.9735C94.66 19.5335 94.31 19.1869 93.87 18.9335C93.4367 18.6735 92.9533 18.5435 92.42 18.5435C91.8867 18.5435 91.4 18.6735 90.96 18.9335C90.5267 19.1869 90.18 19.5335 89.92 19.9735C89.66 20.4069 89.53 20.8902 89.53 21.4235V26.6635C89.53 27.2035 89.66 27.6935 89.92 28.1335C90.18 28.5669 90.5267 28.9135 90.96 29.1735C91.4 29.4269 91.8867 29.5535 92.42 29.5535ZM105.252 31.5535C104.272 31.5535 103.405 31.3402 102.652 30.9135C101.899 30.4802 101.305 29.8869 100.872 29.1335C100.445 28.3802 100.232 27.5135 100.232 26.5335V21.5735C100.232 20.5935 100.445 19.7269 100.872 18.9735C101.305 18.2202 101.899 17.6302 102.652 17.2035C103.405 16.7702 104.272 16.5535 105.252 16.5535C106.232 16.5535 107.099 16.7702 107.852 17.2035C108.605 17.6302 109.195 18.2202 109.622 18.9735C110.055 19.7269 110.272 20.5935 110.272 21.5735V26.5335C110.272 27.5135 110.055 28.3802 109.622 29.1335C109.195 29.8869 108.605 30.4802 107.852 30.9135C107.099 31.3402 106.232 31.5535 105.252 31.5535ZM105.252 29.5535C105.785 29.5535 106.269 29.4269 106.702 29.1735C107.142 28.9135 107.492 28.5669 107.752 28.1335C108.012 27.6935 108.142 27.2035 108.142 26.6635V21.4235C108.142 20.8902 108.012 20.4069 107.752 19.9735C107.492 19.5335 107.142 19.1869 106.702 18.9335C106.269 18.6735 105.785 18.5435 105.252 18.5435C104.719 18.5435 104.232 18.6735 103.792 18.9335C103.359 19.1869 103.012 19.5335 102.752 19.9735C102.492 20.4069 102.362 20.8902 102.362 21.4235V26.6635C102.362 27.2035 102.492 27.6935 102.752 28.1335C103.012 28.5669 103.359 28.9135 103.792 29.1735C104.232 29.4269 104.719 29.5535 105.252 29.5535Z" fill="#151513"/>
<path d="M118.143 29.4635C117.574 29.4635 117.095 29.3609 116.708 29.1555C116.325 28.9502 116.038 28.6772 115.847 28.3365C115.656 27.9959 115.56 27.6249 115.56 27.2235C115.56 26.8129 115.642 26.4629 115.805 26.1735C115.973 25.8795 116.199 25.6392 116.484 25.4525C116.773 25.2659 117.107 25.1235 117.485 25.0255C117.868 24.9322 118.29 24.8505 118.752 24.7805C119.219 24.7059 119.674 24.6429 120.117 24.5915C120.565 24.5355 120.957 24.4819 121.293 24.4305L120.929 24.6545C120.943 23.9079 120.798 23.3549 120.495 22.9955C120.192 22.6362 119.664 22.4565 118.913 22.4565C118.395 22.4565 117.956 22.5732 117.597 22.8065C117.242 23.0399 116.993 23.4085 116.848 23.9125L115.847 23.6185C116.02 22.9419 116.367 22.4169 116.89 22.0435C117.413 21.6702 118.092 21.4835 118.927 21.4835C119.618 21.4835 120.203 21.6142 120.684 21.8755C121.169 22.1322 121.512 22.5055 121.713 22.9955C121.806 23.2149 121.867 23.4599 121.895 23.7305C121.923 24.0012 121.937 24.2765 121.937 24.5565V29.2535H121.02V27.3565L121.286 27.4685C121.029 28.1172 120.63 28.6119 120.089 28.9525C119.548 29.2932 118.899 29.4635 118.143 29.4635ZM118.262 28.5745C118.743 28.5745 119.163 28.4882 119.522 28.3155C119.881 28.1429 120.171 27.9072 120.39 27.6085C120.609 27.3052 120.752 26.9645 120.817 26.5865C120.873 26.3439 120.903 26.0779 120.908 25.7885C120.913 25.4945 120.915 25.2752 120.915 25.1305L121.307 25.3335C120.957 25.3802 120.577 25.4269 120.166 25.4735C119.76 25.5202 119.359 25.5739 118.962 25.6345C118.57 25.6952 118.215 25.7675 117.898 25.8515C117.683 25.9122 117.476 25.9985 117.275 26.1105C117.074 26.2179 116.909 26.3625 116.778 26.5445C116.652 26.7265 116.589 26.9529 116.589 27.2235C116.589 27.4429 116.643 27.6552 116.75 27.8605C116.862 28.0659 117.039 28.2362 117.282 28.3715C117.529 28.5069 117.856 28.5745 118.262 28.5745ZM132.775 29.2535L132.782 24.2905C132.782 23.7072 132.619 23.2499 132.292 22.9185C131.97 22.5825 131.56 22.4145 131.06 22.4145C130.776 22.4145 130.498 22.4799 130.227 22.6105C129.957 22.7412 129.733 22.9512 129.555 23.2405C129.383 23.5299 129.296 23.9079 129.296 24.3745L128.687 24.1995C128.673 23.6582 128.778 23.1845 129.002 22.7785C129.231 22.3725 129.544 22.0575 129.94 21.8335C130.342 21.6049 130.794 21.4905 131.298 21.4905C132.059 21.4905 132.668 21.7262 133.125 22.1975C133.583 22.6642 133.811 23.2965 133.811 24.0945L133.804 29.2535H132.775ZM123.752 29.2535V21.6935H124.676V23.5555H124.788V29.2535H123.752ZM128.274 29.2535L128.281 24.3605C128.281 23.7585 128.12 23.2849 127.798 22.9395C127.481 22.5895 127.061 22.4145 126.538 22.4145C126.016 22.4145 125.593 22.5942 125.271 22.9535C124.949 23.3082 124.788 23.7819 124.788 24.3745L124.172 24.0385C124.172 23.5532 124.287 23.1192 124.515 22.7365C124.744 22.3492 125.057 22.0459 125.453 21.8265C125.85 21.6025 126.3 21.4905 126.804 21.4905C127.285 21.4905 127.712 21.5932 128.085 21.7985C128.463 22.0039 128.76 22.3025 128.974 22.6945C129.189 23.0865 129.296 23.5625 129.296 24.1225L129.289 29.2535H128.274Z" fill="#151513"/>
</g>
<defs>
<clipPath id="clip0_2017_3916">
<rect width="150" height="48" fill="white"/>
</clipPath>
</defs>
</svg>
