<svg width="28" height="27" viewBox="0 0 28 27" fill="none" xmlns="http://www.w3.org/2000/svg">
<circle cx="14.0047" cy="13.399" r="9.29812" fill="#FEFEFC" stroke="#151513" stroke-width="1.0939"/>
<path d="M14.0047 7.62318C14.0047 7.35147 14.0047 7.21561 14.0666 7.10408C14.1171 7.01322 14.2148 6.92666 14.311 6.8874C14.4292 6.83922 14.5496 6.85373 14.7904 6.88277C15.3824 6.95416 15.9632 7.10604 16.5164 7.33518C17.3127 7.66502 18.0362 8.14847 18.6457 8.75794C19.2551 9.36741 19.7386 10.0909 20.0684 10.8873C20.2976 11.4404 20.4495 12.0212 20.5208 12.6132C20.5499 12.854 20.5644 12.9744 20.5162 13.0926C20.477 13.1888 20.3904 13.2865 20.2995 13.337C20.188 13.399 20.0521 13.399 19.7804 13.399L14.7923 13.399C14.5166 13.399 14.3787 13.399 14.2734 13.3453C14.1808 13.2981 14.1055 13.2228 14.0583 13.1302C14.0047 13.0249 14.0047 12.887 14.0047 12.6113V7.62318Z" fill="#151513"/>
</svg>
