<svg width="28" height="27" viewBox="0 0 28 27" fill="none" xmlns="http://www.w3.org/2000/svg">
<circle cx="14.0047" cy="13.2677" r="9.29812" fill="#FEFEFC" stroke="#151513" stroke-width="1.0939"/>
<path d="M14.0047 7.49197C14.0047 7.22026 14.0047 7.08441 14.0666 6.97288C14.1171 6.88202 14.2148 6.79545 14.311 6.7562C14.4292 6.70801 14.5496 6.72253 14.7904 6.75157C15.3824 6.82296 15.9632 6.97484 16.5164 7.20398C17.3127 7.53382 18.0362 8.01727 18.6457 8.62674C19.2551 9.2362 19.7386 9.95975 20.0684 10.7561C20.3983 11.5524 20.568 12.4058 20.568 13.2677C20.568 14.1297 20.3983 14.9831 20.0684 15.7794C19.7386 16.5758 19.2551 17.2993 18.6457 17.9088C18.0362 18.5182 17.3127 19.0017 16.5164 19.3315C15.9632 19.5607 15.3824 19.7125 14.7904 19.7839C14.5496 19.813 14.4292 19.8275 14.311 19.7793C14.2148 19.74 14.1171 19.6535 14.0666 19.5626C14.0047 19.4511 14.0047 19.3152 14.0047 19.0435L14.0047 13.2677V7.49197Z" fill="#151513"/>
</svg>
