<svg width="28" height="28" viewBox="0 0 28 28" fill="none" xmlns="http://www.w3.org/2000/svg">
<circle cx="14.0047" cy="14.0048" r="9.29812" fill="#FEFEFC" stroke="#151513" stroke-width="1.0939"/>
<path d="M14.0047 8.22906C14.0047 7.95735 14.0047 7.82149 14.0666 7.70996C14.1171 7.6191 14.2148 7.53253 14.311 7.49328C14.4292 7.4451 14.5496 7.45961 14.7904 7.48865C15.8102 7.61163 16.7909 7.97282 17.6511 8.54758C18.7304 9.26878 19.5717 10.2938 20.0684 11.4931C20.5652 12.6924 20.6952 14.0121 20.4419 15.2853C20.1887 16.5585 19.5636 17.7279 18.6457 18.6458C17.7278 19.5638 16.5583 20.1889 15.2851 20.4421C14.0119 20.6954 12.6923 20.5654 11.493 20.0686C10.2937 19.5718 9.26861 18.7306 8.54741 17.6513C7.97265 16.7911 7.61146 15.8104 7.48848 14.7906C7.45944 14.5498 7.44492 14.4293 7.49311 14.3112C7.53236 14.2149 7.61893 14.1173 7.70979 14.0668C7.82132 14.0048 7.95718 14.0048 8.22889 14.0048H13.2171C13.4927 14.0048 13.6306 14.0048 13.7359 13.9512C13.8285 13.904 13.9038 13.8287 13.951 13.7361C14.0047 13.6308 14.0047 13.4929 14.0047 13.2172V8.22906Z" fill="#151513"/>
</svg>
