<svg width="42" height="54" viewBox="0 0 42 54" fill="none" xmlns="http://www.w3.org/2000/svg">
<rect x="11.519" y="17.4564" width="28.5501" height="34.668" rx="4.07859" fill="#FEFEFC" stroke="#151513" stroke-width="2.03929"/>
<path d="M19.6763 27.653H31.9121" stroke="#151513" stroke-width="2.03929" stroke-linecap="round"/>
<path d="M19.6763 35.81H31.9121" stroke="#151513" stroke-width="2.03929" stroke-linecap="round"/>
<path d="M19.6763 43.9672H27.8335" stroke="#151513" stroke-width="2.03929" stroke-linecap="round"/>
<path d="M16.6173 13.3778C16.6173 16.5834 15.7492 19.4394 14.3993 21.4642C13.0447 23.4962 11.2853 24.594 9.47974 24.594C7.6742 24.594 5.91478 23.4962 4.56015 21.4642C3.21027 19.4394 2.34222 16.5834 2.34222 13.3778C2.34222 10.1723 3.21027 7.31627 4.56015 5.29146C5.91478 3.25952 7.6742 2.16174 9.47974 2.16174C11.2853 2.16174 13.0447 3.25952 14.3993 5.29146C15.7492 7.31627 16.6173 10.1723 16.6173 13.3778Z" fill="#FEFEFC" stroke="#151513" stroke-width="2.03929"/>
<path d="M30.8925 13.3778C30.8925 16.5834 30.0244 19.4394 28.6746 21.4642C27.3199 23.4962 25.5605 24.594 23.755 24.594C21.9494 24.594 20.19 23.4962 18.8354 21.4642C17.4855 19.4394 16.6175 16.5834 16.6175 13.3778C16.6175 10.1723 17.4855 7.31627 18.8354 5.29146C20.19 3.25952 21.9494 2.16174 23.755 2.16174C25.5605 2.16174 27.3199 3.25952 28.6746 5.29146C30.0244 7.31627 30.8925 10.1723 30.8925 13.3778Z" fill="#FEFEFC" stroke="#151513" stroke-width="2.03929"/>
<ellipse cx="22.7351" cy="16.4368" rx="5.09823" ry="7.13753" fill="#151513"/>
<ellipse cx="8.46023" cy="16.4368" rx="5.09823" ry="7.13753" fill="#151513"/>
</svg>
