<svg width="48" height="48" viewBox="0 0 48 48" fill="none" xmlns="http://www.w3.org/2000/svg">
<path d="M10.477 29.6235C11.2747 32.6003 13.0323 35.2308 15.4773 37.1069C17.9224 38.9831 20.9181 40 24 40C27.0819 40 30.0776 38.9831 32.5227 37.1069C34.9677 35.2308 36.7253 32.6003 37.523 29.6235" stroke="#151513"/>
<path d="M24 8L23.3753 7.21913L24 6.71937L24.6247 7.21913L24 8ZM25 26C25 26.5523 24.5523 27 24 27C23.4477 27 23 26.5523 23 26L25 26ZM13.3753 15.2191L23.3753 7.21913L24.6247 8.78087L14.6247 16.7809L13.3753 15.2191ZM24.6247 7.21913L34.6247 15.2191L33.3753 16.7809L23.3753 8.78087L24.6247 7.21913ZM25 8L25 26L23 26L23 8L25 8Z" fill="#151513"/>
</svg>
